<svg width="34" height="33" viewBox="0 0 34 33" fill="none" xmlns="http://www.w3.org/2000/svg">
<path d="M33.9317 31.0102L28.0365 14.5397C27.6225 13.4561 26.6958 12.7863 25.6312 12.7863C24.5665 12.7863 23.6595 13.4561 23.206 14.5791L17.3306 31.0102C17.0546 31.7785 17.4489 32.6257 18.2178 32.9015C18.9868 33.1773 19.8346 32.7833 20.1106 32.0149L21.333 28.6066H29.9096L31.132 32.0149C31.3489 32.6257 31.9206 33 32.5318 33C32.6896 33 32.867 32.9803 33.0247 32.9212C33.7937 32.6454 34.188 31.7982 33.912 31.0299L33.9317 31.0102ZM22.4174 25.6316L25.6509 16.5887L28.8843 25.6316H22.4174ZM17.3897 8.31403C12.9339 15.3475 8.91175 19.603 4.02212 22.44C3.78552 22.5779 3.52921 22.637 3.29262 22.637C2.77999 22.637 2.28709 22.3809 2.01106 21.9081C1.59702 21.1988 1.83361 20.2925 2.5434 19.8985C6.68379 17.4949 10.075 14.0472 13.8803 8.33373H1.47872C0.670353 8.33373 0 7.66388 0 6.85612C0 6.04836 0.670353 5.37851 1.47872 5.37851H8.87232V1.47761C8.87232 0.669851 9.54267 0 10.351 0C11.1594 0 11.8298 0.669851 11.8298 1.47761V5.37851H19.2234C20.0317 5.37851 20.7021 6.04836 20.7021 6.85612C20.7021 7.66388 20.0317 8.33373 19.2234 8.33373H17.37L17.3897 8.31403ZM17.4686 22.637C17.2123 22.637 16.956 22.5779 16.7194 22.44C15.4378 21.6913 14.1957 20.8639 13.0324 19.997C12.3818 19.5045 12.2438 18.5785 12.7367 17.9284C13.2296 17.2782 14.1563 17.1403 14.8069 17.6328C15.8716 18.4406 17.0349 19.1893 18.2178 19.8788C18.9276 20.2925 19.1642 21.1988 18.7502 21.9081C18.4741 22.3809 17.9812 22.637 17.4686 22.637Z" fill="#861D5D"/>
</svg>
