<svg width="50" height="49" viewBox="0 0 50 49" fill="none" xmlns="http://www.w3.org/2000/svg">
<path d="M42.6073 39.8445C39.2895 43.661 34.8385 46.3169 29.9042 47.4244C24.97 48.5318 19.8109 48.0329 15.1803 46.0003C10.5498 43.9673 6.69044 40.5071 4.16593 36.1251C1.64142 31.7431 0.583956 26.6688 1.14796 21.6432C1.71152 16.6171 3.86728 11.9028 7.30041 8.18893C10.7335 4.47504 15.2641 1.9561 20.2305 1M29.2127 1.01923C32.5477 1.66152 35.7059 3.01274 38.4735 4.98146C41.2411 6.95017 43.5535 9.49043 45.2542 12.4303C46.9551 15.3703 48.0045 18.6413 48.3315 22.022C48.6585 25.4027 48.2555 28.8142 47.1497 32.0256" stroke="#861D5D" stroke-width="2" stroke-linecap="round"/>
<path d="M19.5993 23.0211V18.4387C19.5993 15.6601 21.8946 13.4077 24.7264 13.4077C27.5582 13.4077 29.8536 15.6601 29.8536 18.4387V23.0211M18.3175 23.0211H31.1353C32.5556 23.0211 33.6989 24.1645 33.6989 25.5847V32.6345C33.6989 34.0547 32.5556 35.1981 31.1353 35.1981H18.3175C16.8973 35.1981 15.7539 34.0547 15.7539 32.6345V25.5847C15.7539 24.1645 16.8973 23.0211 18.3175 23.0211Z" stroke="#861D5D" stroke-width="2"/>
</svg>
