<svg width="46" height="32" viewBox="0 0 46 32" fill="none" xmlns="http://www.w3.org/2000/svg">
<path d="M39.1621 0C42.4867 0 45.2051 2.59531 45.4019 5.87045L45.4133 6.25126V25.5849C45.4133 28.9095 42.818 31.6279 39.5429 31.8247L39.1621 31.8362H6.25126C2.92665 31.8362 0.208214 29.2408 0.011409 25.9657L0 25.5849V6.25126C0 2.92665 2.59531 0.208214 5.87045 0.0114085L6.25126 0H39.1621ZM42.0016 13.58H3.4075L3.40978 25.5849C3.40978 27.0561 4.5279 28.2662 5.96073 28.4117L6.25126 28.4264H39.1621C40.6333 28.4264 41.8434 27.3083 41.9889 25.8754L42.0035 25.5849L42.0016 13.58ZM36.9207 21.5482C37.8623 21.5482 38.6256 22.3115 38.6256 23.2531C38.6256 24.1162 37.9842 24.8295 37.1521 24.9424L36.9207 24.958H31.2378C30.2962 24.958 29.5329 24.1947 29.5329 23.2531C29.5329 22.39 30.1743 21.6766 31.0064 21.5638L31.2378 21.5482H36.9207ZM39.1621 3.40978H6.25126C4.78003 3.40978 3.56996 4.5279 3.42445 5.96073L3.40978 6.25126L3.4075 10.1702H42.0016L42.0035 6.25126C42.0035 4.78003 40.8854 3.56996 39.4526 3.42445L39.1621 3.40978Z" fill="#861D5D"/>
</svg>
