<svg width="47" height="52" viewBox="0 0 47 52" fill="none" xmlns="http://www.w3.org/2000/svg">
<path d="M44.9759 23.8809C44.9759 35.6228 36.4145 46.6203 24.7179 49.8379C23.9221 50.054 23.0539 50.054 22.258 49.8379C10.5614 46.6203 2 35.6228 2 23.8809V13.3396C2 11.3706 3.49525 9.1375 5.35223 8.39313L18.7852 2.91846C21.7998 1.69385 25.2003 1.69385 28.2148 2.91846L41.6478 8.39313C43.4807 9.1375 45 11.3706 45 13.3396L44.9759 23.8809Z" stroke="#831D5C" stroke-width="2.5" stroke-linecap="round" stroke-linejoin="round"/>
<path d="M23.5 27C26.5376 27 29 24.9853 29 22.5C29 20.0147 26.5376 18 23.5 18C20.4624 18 18 20.0147 18 22.5C18 24.9853 20.4624 27 23.5 27Z" stroke="#831D5C" stroke-width="2.5" stroke-miterlimit="10" stroke-linecap="round" stroke-linejoin="round"/>
<path d="M23 27V34" stroke="#831D5C" stroke-width="2.5" stroke-miterlimit="10" stroke-linecap="round" stroke-linejoin="round"/>
</svg>
